<svg xmlns="http://www.w3.org/2000/svg" viewBox="0 0 633 270.96"><defs><style>.cls-1{fill:#735236;}</style></defs><g id="Capa_2" data-name="Capa 2"><g id="Capa_1-2" data-name="Capa 1"><path class="cls-1" d="M188.18,57.56c-9.56,26-14.43,53.7-25.63,79.12-4.73,10.73-10.55,21.18-18.08,30.21-7.2,8.64-17.66,19.3-29.29,21.14-13,2.07-21.47-14.29-25.28-24.42-4.4-11.71-6-24.2-7.61-36.53C79.66,106.72,77,72.55,51.17,68.85c-27.9-4-42.06,23.5-50.81,45-2.27,5.61,6.82,8,9.07,2.5C14,105.11,19,92.73,28.56,84.73c7.82-6.51,21-10.06,29.7-3.06,9.46,7.63,11.44,24,13.2,35.16,2,13,3,26.13,6.18,38.89C82.55,175.3,97,204.78,121.89,196c21.63-7.64,37.25-30.2,46.69-50,13.07-27.39,18.26-57.57,28.67-85.92C199.34,54.37,190.25,51.91,188.18,57.56Z"/><path class="cls-1" d="M628.47,75.26a743.63,743.63,0,0,0-89.33,10.17q11.13-20.34,20.4-41.61c3.09-7.14,6.29-14.35,8.85-21.7,2.27-6.53,3.41-14-1-19.87A4.89,4.89,0,0,0,561,.57C546,7.35,536.56,24,527.93,37.18a385.83,385.83,0,0,0-27.29,49.06c-1.19,2.57-2.32,5.19-3.46,7.79q-19.68,4.64-39.12,10.31c-5.79,1.71-3.32,10.79,2.51,9.07,10.62-3.12,21.32-5.93,32.05-8.57-4.3,10.62-8.19,21.41-11.53,32.37-2.26,7.39-5.38,15.21-6.62,22.83a26.35,26.35,0,0,0-.28,2.66,112.38,112.38,0,0,1-18.38,15.43c-3.22,2.13-10.71,8.05-14.79,6-3-1.48-3.14-6-2.84-8.89,1-9.67,9.42-16.87,9.65-27,.24-10.38-8-17-17.86-13.44a33.22,33.22,0,0,0-4.2,2c1.7-10.64-11.5-18.32-19.66-10.23-6,5.91-4.41,14.49.95,19.29-7.89,11.14-16.54,22.1-26.95,30.43-2.89,2.3-7,5.06-10.85,4.9-4.57-.2-6-4.83-6.5-8.67a49.21,49.21,0,0,1,.54-14.82,88.77,88.77,0,0,0,5.2-15.87c.91-4-3.78-7.17-6.84-5.48a4.65,4.65,0,0,0-1.07-.38c-12.93-3-25.76,3-33.46,13.48a49,49,0,0,0-7.76,17.22,5,5,0,0,0-1.49.86c-11.76,9.94-31.68,7.31-33.09-10.37a43,43,0,0,1,0-5.68c6.35-8.63,12.34-17.54,18.16-26.5q16.4-25.21,30.73-51.7,7.17-13.23,13.79-26.73c4.08-8.32,8.43-16.75,11-25.69,1.76-6.14,4.42-16.65-3.37-19.85C347.43-2,338.83,7,334.18,12c-12.6,13.47-22.54,30.25-30.91,46.58A270.51,270.51,0,0,0,283.2,110a259.43,259.43,0,0,0-6.4,30c-.41,2.63-.8,5.32-1.08,8-4.06,5.46-8.25,10.83-12.79,15.92-4.91,5.52-10.24,11.94-16.85,15.45-3.14,1.67-7.34,3.21-10.31.36-2.57-2.46-2.72-7-2.83-10.34a56.18,56.18,0,0,1,1-12,89.18,89.18,0,0,0,5-15.39c.91-4-3.78-7.17-6.83-5.48a4.91,4.91,0,0,0-1.08-.38c-13.36-3-26.36,3.34-34.06,14.32a50.43,50.43,0,0,0-7.82,19.14c-1.2,6-2.45,13.27,1.58,18.51,8.52,11.08,22.52-.33,28.84-7.64,1.57-1.83,3-3.73,4.45-5.66.65,4.34,2.09,8.5,5.16,11.59,13.06,13.16,30.73-5.08,39.23-14.44,2.71-3,5.29-6.09,7.84-9.22a27,27,0,0,0,2.15,6.26c7.61,15.42,25.56,16.81,39.2,9.92a15.25,15.25,0,0,0,2.32,8.61c8.42,12.53,23.66-.36,30-7.93,1.31-1.57,2.55-3.18,3.75-4.82,1.55,10.7,9.77,18.26,20.87,15.24,10.9-3,19.31-13.17,26.39-21.33,5.3-6.11,10.22-12.54,15-19.1,5.59.22,10.35-2.76,15.27-4.95,1.56-.69,4-2.13,5.7-1.22,3.68,2,.83,9.32-.28,11.9-4.29,9.93-11.24,19.41-6.06,30.62,8.49,18.35,30.68,2.17,45.4-11.8a34.4,34.4,0,0,0,3.07,6.74c3.62,6,9.4,11,16.4,12.5,6.55,1.36,13.63-.59,19.8-2.74a105.24,105.24,0,0,0,23-11.55,26.1,26.1,0,0,0,10.69,10.24c12.75,6.52,29.92,4.06,39-7.41,3.73-4.69-2.89-11.4-6.65-6.65a22.7,22.7,0,0,1-26.46,6.49,17.71,17.71,0,0,1-8.94-8.22c1.4-1.11,2.77-2.24,4.08-3.4,7.15-6.32,22.42-22,15.38-32.49-4.27-6.36-12.76-3.58-17.91,0a31.24,31.24,0,0,0-11.22,14.71,32.29,32.29,0,0,0-1.48,17.32c-1.23.82-2.44,1.66-3.73,2.44-9.17,5.55-19.22,11.71-30.26,12.31-9.36.5-16.13-9.08-17-18.13,1.77-1.89,3.24-3.54,4.29-4.75,17.23-20,32.06-42.43,45.22-65.36a727.35,727.35,0,0,1,95.29-11.42C634.49,84.35,634.53,74.94,628.47,75.26ZM218.8,165.79a75,75,0,0,1-8.83,11.1c-2.06,2.15-7.24,7.55-10.78,6.15-3.75-1.49-1.31-9.92-.67-12.69a42.9,42.9,0,0,1,5.11-13.11c5-8.16,14.18-13.94,23.9-12.23a69,69,0,0,0-2.52,9.1A77.42,77.42,0,0,1,218.8,165.79ZM329,34a127,127,0,0,1,12.49-16c1.4-1.45,6.48-7.46,8.55-7.22l1-.36a23.93,23.93,0,0,1-.52,3.69A55.56,55.56,0,0,1,348.57,21c-4.78,14.43-12.73,28.2-19.83,41.6a723.24,723.24,0,0,1-40.68,67.79c1.09-5.43,2.3-10.84,3.73-16.2A260.17,260.17,0,0,1,329,34Zm19.69,131.51A76.23,76.23,0,0,1,339.47,177c-2.13,2.2-7.86,8-11.29,5.56-3.11-2.19-.5-10.46.24-13.44a41.19,41.19,0,0,1,5.9-13.55c5.06-7.32,13.9-12.19,22.85-10.58a71.63,71.63,0,0,0-2.7,9.44A78.42,78.42,0,0,1,348.64,165.46Zm62.9-29.39a2.82,2.82,0,0,1,4.25-2.77l-3.36,4.94A3.48,3.48,0,0,1,411.54,136.07Zm132.85,21.11a22,22,0,0,1,7.72-11.5,21.38,21.38,0,0,1,3.27-1.92c2.79-1.38,2.36-.85,1.81,1.32-.69,2.72-2.66,5.12-4.24,7.37a60.5,60.5,0,0,1-9.44,10.43A23.8,23.8,0,0,1,544.39,157.18Zm-32-73.68a386,386,0,0,1,23.71-41.57c6.83-10.4,14.12-23.37,24.85-30.55.3,3.21-1,6.6-2.13,9.72-2.26,6.06-4.78,12-7.36,18Q544.51,55,536.52,70.41c-3,5.81-6.16,11.55-9.39,17.24q-9.3,1.8-18.56,3.83C509.8,88.81,511,86.15,512.34,83.5Zm-11.81,46.19c-4,5.73-8.22,11.5-12.61,17.12a452.21,452.21,0,0,1,15.95-44.69q8.46-1.94,17-3.68Q511.25,114.43,500.53,129.69Z"/><path class="cls-1" d="M124.74,265.66a.46.46,0,0,1,.35.14l.84.9a14.49,14.49,0,0,1-2,1.76,13.06,13.06,0,0,1-2.37,1.34,14.53,14.53,0,0,1-2.82.86,18.36,18.36,0,0,1-3.37.3,14.29,14.29,0,0,1-5.62-1.08,12.45,12.45,0,0,1-4.38-3,14,14,0,0,1-2.85-4.77,18.08,18.08,0,0,1-1-6.22,17.22,17.22,0,0,1,1-6.13,14,14,0,0,1,3-4.77,13.27,13.27,0,0,1,4.56-3.08,15.32,15.32,0,0,1,5.88-1.1,16.66,16.66,0,0,1,2.94.24,13.35,13.35,0,0,1,2.49.69,11.5,11.5,0,0,1,2.18,1.12,16.45,16.45,0,0,1,2,1.54l-.64.94a.61.61,0,0,1-.52.25.83.83,0,0,1-.48-.22c-.2-.15-.44-.33-.75-.54s-.66-.46-1.08-.71a8.66,8.66,0,0,0-1.52-.71,11.28,11.28,0,0,0-2-.54,13.56,13.56,0,0,0-2.6-.22,12.84,12.84,0,0,0-4.95.93,11.14,11.14,0,0,0-3.88,2.64,12.09,12.09,0,0,0-2.53,4.18,15.57,15.57,0,0,0-.91,5.49,16.19,16.19,0,0,0,.9,5.59,11.92,11.92,0,0,0,2.48,4.17,10.64,10.64,0,0,0,3.74,2.6,11.89,11.89,0,0,0,4.69.91,17,17,0,0,0,2.82-.21,11.12,11.12,0,0,0,2.29-.62,10.84,10.84,0,0,0,1.94-1,16,16,0,0,0,1.77-1.42,1.21,1.21,0,0,1,.2-.14A.48.48,0,0,1,124.74,265.66Z"/><path class="cls-1" d="M177.12,257.27v13.35H175V241.1h7.53q5.11,0,7.64,2a6.89,6.89,0,0,1,2.52,5.79,7.9,7.9,0,0,1-.58,3.08,7.24,7.24,0,0,1-1.68,2.45,8.76,8.76,0,0,1-2.64,1.73,11.54,11.54,0,0,1-3.48.89,3.55,3.55,0,0,1,.9.84l10.15,12.76h-1.86a1.26,1.26,0,0,1-.57-.12,1.62,1.62,0,0,1-.47-.42l-9.45-12a2,2,0,0,0-.76-.65,3.26,3.26,0,0,0-1.26-.19Zm0-1.58h5.13a12.29,12.29,0,0,0,3.52-.47,7.69,7.69,0,0,0,2.63-1.35,5.88,5.88,0,0,0,1.64-2.1,6.73,6.73,0,0,0,.56-2.78,5.41,5.41,0,0,0-2.07-4.67,10,10,0,0,0-6-1.53h-5.4Z"/><path class="cls-1" d="M267.84,255.85a17.74,17.74,0,0,1-1,6.21,13.73,13.73,0,0,1-2.88,4.76,12.78,12.78,0,0,1-4.44,3,15.66,15.66,0,0,1-11.43,0,12.69,12.69,0,0,1-4.44-3,13.76,13.76,0,0,1-2.89-4.76,19,19,0,0,1,0-12.39,13.76,13.76,0,0,1,2.89-4.76,12.71,12.71,0,0,1,4.44-3,14.43,14.43,0,0,1,5.69-1.09,14.75,14.75,0,0,1,5.74,1.08,12.54,12.54,0,0,1,4.44,3.05,13.78,13.78,0,0,1,2.88,4.77A17.65,17.65,0,0,1,267.84,255.85Zm-2.21,0a16.93,16.93,0,0,0-.85-5.55,12,12,0,0,0-2.41-4.17,10.31,10.31,0,0,0-3.75-2.61,12.49,12.49,0,0,0-4.86-.91,12.34,12.34,0,0,0-4.81.91,10.48,10.48,0,0,0-3.75,2.61,11.93,11.93,0,0,0-2.44,4.17,18.17,18.17,0,0,0,0,11.11,11.89,11.89,0,0,0,2.44,4.16,10.36,10.36,0,0,0,3.75,2.61,12.52,12.52,0,0,0,4.81.9,12.67,12.67,0,0,0,4.86-.9,10.19,10.19,0,0,0,3.75-2.61,12,12,0,0,0,2.41-4.16A16.78,16.78,0,0,0,265.63,255.85Z"/><path class="cls-1" d="M338,265.66a.46.46,0,0,1,.35.14l.84.9a14,14,0,0,1-2,1.76,12.65,12.65,0,0,1-2.36,1.34,14.53,14.53,0,0,1-2.82.86,18.53,18.53,0,0,1-3.37.3,14.29,14.29,0,0,1-5.62-1.08,12.45,12.45,0,0,1-4.38-3,14,14,0,0,1-2.85-4.77,18.08,18.08,0,0,1-1-6.22,17.22,17.22,0,0,1,1-6.13,13.86,13.86,0,0,1,3-4.77,13.27,13.27,0,0,1,4.56-3.08,15.3,15.3,0,0,1,5.87-1.1,16.7,16.7,0,0,1,2.95.24,13.57,13.57,0,0,1,2.49.69,11.5,11.5,0,0,1,2.18,1.12,16.45,16.45,0,0,1,2,1.54l-.64.94a.62.62,0,0,1-.53.25.89.89,0,0,1-.48-.22c-.19-.15-.44-.33-.74-.54s-.66-.46-1.08-.71a9,9,0,0,0-1.52-.71,11.52,11.52,0,0,0-2-.54,13.6,13.6,0,0,0-2.61-.22,12.82,12.82,0,0,0-4.94.93,11.14,11.14,0,0,0-3.88,2.64,12.09,12.09,0,0,0-2.53,4.18,15.57,15.57,0,0,0-.91,5.49,16.19,16.19,0,0,0,.9,5.59,11.92,11.92,0,0,0,2.48,4.17,10.64,10.64,0,0,0,3.74,2.6,11.89,11.89,0,0,0,4.69.91,17.07,17.07,0,0,0,2.82-.21,11.12,11.12,0,0,0,2.29-.62,10.84,10.84,0,0,0,1.94-1,16,16,0,0,0,1.77-1.42,1.21,1.21,0,0,1,.2-.14A.48.48,0,0,1,338,265.66Z"/><path class="cls-1" d="M410.36,270.62h-2.14V256.48H389.74v14.14h-2.16V241.1h2.16v13.77h18.48V241.1h2.14Z"/><path class="cls-1" d="M478.54,241.1v1.78H463v11.93h12.93v1.73H463v12.31h15.54v1.77H460.85V241.1Z"/><path class="cls-1" d="M546.5,241.1v1.82H536.13v27.7H534v-27.7H523.57V241.1Z"/></g></g></svg>