<svg xmlns="http://www.w3.org/2000/svg" viewBox="0 0 64 64"><defs><style>.cls-1{fill:#d9c9ba;}.cls-2{fill:#735236;}</style></defs><g id="Capa_2" data-name="Capa 2"><g id="Capa_1-2" data-name="Capa 1"><rect class="cls-1" width="64" height="64"/><path class="cls-2" d="M20.59,25c-.85,2.32-1.28,4.78-2.27,7a11.23,11.23,0,0,1-1.61,2.68,4.88,4.88,0,0,1-2.6,1.88c-1.16.18-1.91-1.27-2.25-2.17a14.35,14.35,0,0,1-.68-3.25C11,29.4,10.71,26.37,8.41,26c-2.48-.36-3.73,2.09-4.51,4-.2.5.61.71.81.22A6.8,6.8,0,0,1,6.4,27.45a2.18,2.18,0,0,1,2.65-.27c.84.67,1,2.13,1.17,3.12.18,1.15.26,2.32.55,3.46.43,1.74,1.71,4.36,3.93,3.58,1.92-.68,3.31-2.69,4.15-4.45,1.16-2.43,1.62-5.11,2.55-7.63C21.59,24.75,20.78,24.53,20.59,25Z"/><path class="cls-2" d="M59.73,26.61a66.3,66.3,0,0,0-7.94.9c.66-1.21,1.27-2.44,1.81-3.7.28-.63.56-1.27.79-1.93a1.86,1.86,0,0,0-.09-1.76.42.42,0,0,0-.57-.15c-1.33.6-2.17,2.08-2.94,3.25a34.32,34.32,0,0,0-2.42,4.36c-.11.23-.21.46-.31.69-1.17.28-2.33.58-3.48.92a.42.42,0,0,0,.23.81c.94-.28,1.89-.53,2.85-.76-.39.94-.73,1.9-1,2.87a16.71,16.71,0,0,0-.59,2,1.94,1.94,0,0,0,0,.24,9.77,9.77,0,0,1-1.64,1.37c-.28.19-1,.72-1.31.54s-.28-.54-.25-.79c.09-.86.83-1.5.85-2.4a1.14,1.14,0,0,0-1.58-1.19,3.17,3.17,0,0,0-.38.17,1,1,0,0,0-1.74-.9,1.15,1.15,0,0,0,.08,1.71,12.93,12.93,0,0,1-2.4,2.7,1.61,1.61,0,0,1-1,.44c-.41,0-.54-.43-.58-.77a4.51,4.51,0,0,1,0-1.32,7.5,7.5,0,0,0,.46-1.41A.44.44,0,0,0,36,32l-.09,0a2.94,2.94,0,0,0-3,1.2,4.23,4.23,0,0,0-.68,1.53.5.5,0,0,0-.14.08c-1,.88-2.81.65-2.94-.93a4.17,4.17,0,0,1,0-.5c.56-.77,1.1-1.56,1.61-2.36,1-1.49,1.89-3,2.73-4.59.43-.79.84-1.58,1.23-2.38a14.78,14.78,0,0,0,1-2.28c.15-.55.39-1.48-.3-1.77s-1.44.53-1.86,1a18.52,18.52,0,0,0-2.75,4.14,23.81,23.81,0,0,0-2.35,7.23q-.06.36-.09.72c-.37.48-.74,1-1.14,1.41a6.15,6.15,0,0,1-1.5,1.38c-.28.14-.65.28-.92,0a1.41,1.41,0,0,1-.25-.92,4.79,4.79,0,0,1,.09-1.07,8.1,8.1,0,0,0,.44-1.37.45.45,0,0,0-.61-.49l-.09,0a2.93,2.93,0,0,0-3,1.27,4.59,4.59,0,0,0-.7,1.71,2.08,2.08,0,0,0,.14,1.64c.76,1,2,0,2.57-.68a6.12,6.12,0,0,0,.39-.5,1.87,1.87,0,0,0,.46,1C25.39,37.65,27,36,27.72,35.2c.24-.27.47-.55.7-.83a2.31,2.31,0,0,0,.19.56,2.47,2.47,0,0,0,3.48.88,1.37,1.37,0,0,0,.21.77c.75,1.11,2.1,0,2.67-.71l.33-.42a1.46,1.46,0,0,0,1.85,1.35,5.36,5.36,0,0,0,2.35-1.9c.47-.54.91-1.11,1.33-1.69a3.16,3.16,0,0,0,1.36-.44c.14-.07.35-.19.5-.11.33.17.08.83,0,1.06-.38.88-1,1.72-.54,2.72.76,1.63,2.73.19,4-1a3.24,3.24,0,0,0,.27.6A2.31,2.31,0,0,0,47.9,37.1a3.44,3.44,0,0,0,1.76-.24,10,10,0,0,0,2-1,2.32,2.32,0,0,0,.95.91,2.85,2.85,0,0,0,3.47-.66c.33-.42-.26-1-.59-.59a2,2,0,0,1-2.35.58,1.64,1.64,0,0,1-.8-.73l.37-.31c.63-.56,2-2,1.36-2.89-.38-.56-1.13-.31-1.59,0a2.82,2.82,0,0,0-1,1.31A3,3,0,0,0,51.39,35l-.33.22a6,6,0,0,1-2.69,1.09c-.83.05-1.43-.81-1.51-1.61.16-.17.29-.31.38-.42a37.56,37.56,0,0,0,4-5.81,65.26,65.26,0,0,1,8.47-1C60.27,27.41,60.27,26.58,59.73,26.61Zm-36.41,8a6.36,6.36,0,0,1-.79,1c-.18.19-.64.67-1,.55s-.11-.88-.06-1.13A4.08,4.08,0,0,1,22,33.89a2.12,2.12,0,0,1,2.12-1.08,6.87,6.87,0,0,0-.22.81A8.5,8.5,0,0,1,23.32,34.65Zm9.79-11.72a11.56,11.56,0,0,1,1.11-1.42c.12-.12.57-.66.76-.64l.08,0a1.86,1.86,0,0,1,0,.33,4.77,4.77,0,0,1-.17.62,24.45,24.45,0,0,1-1.76,3.69,64.57,64.57,0,0,1-3.62,6q.15-.72.33-1.44A23.24,23.24,0,0,1,33.11,22.93Zm1.75,11.69a6.29,6.29,0,0,1-.82,1c-.19.2-.7.71-1,.5s0-.93,0-1.2a3.68,3.68,0,0,1,.52-1.2,2.08,2.08,0,0,1,2-.94,7.39,7.39,0,0,0-.23.84A7.55,7.55,0,0,1,34.86,34.62ZM40.45,32a.25.25,0,0,1,.38-.24l-.3.43A.26.26,0,0,1,40.45,32Zm11.81,1.88a1.89,1.89,0,0,1,.68-1,1.22,1.22,0,0,1,.29-.17c.25-.13.21-.08.16.11a2.15,2.15,0,0,1-.37.66,5.28,5.28,0,0,1-.84.92A2.26,2.26,0,0,1,52.26,33.89Zm-2.85-6.55a33.89,33.89,0,0,1,2.11-3.7,9.15,9.15,0,0,1,2.2-2.71,1.92,1.92,0,0,1-.19.86c-.2.54-.42,1.07-.65,1.6q-.62,1.41-1.32,2.79-.41.77-.84,1.53c-.55.1-1.1.22-1.65.34C49.18,27.81,49.29,27.57,49.41,27.34Zm-1,4.1c-.36.51-.73,1-1.12,1.53a40.07,40.07,0,0,1,1.42-4l1.5-.32C49.59,29.61,49,30.54,48.36,31.44Z"/><path class="cls-2" d="M15,43.53h0l.07.08a.93.93,0,0,1-.18.16.72.72,0,0,1-.21.12.91.91,0,0,1-.25.07,1.39,1.39,0,0,1-.3,0,1.16,1.16,0,0,1-.89-.36,1.22,1.22,0,0,1-.25-.43,1.59,1.59,0,0,1-.09-.55,1.63,1.63,0,0,1,.09-.55,1.17,1.17,0,0,1,.27-.42,1,1,0,0,1,.4-.27,1.27,1.27,0,0,1,.52-.1l.27,0a.9.9,0,0,1,.22.06l.19.1.18.14-.06.08s0,0-.05,0l0,0-.06,0-.1-.07-.13-.06-.18,0-.24,0a1.27,1.27,0,0,0-.44.08,1.07,1.07,0,0,0-.57.61,1.53,1.53,0,0,0-.08.49,1.59,1.59,0,0,0,.08.5,1.34,1.34,0,0,0,.22.37,1.13,1.13,0,0,0,.34.23,1.07,1.07,0,0,0,.41.08l.25,0a.65.65,0,0,0,.21-.06.56.56,0,0,0,.17-.09.83.83,0,0,0,.16-.12h0Z"/><path class="cls-2" d="M19.61,42.79V44h-.19V41.35h.67a1.15,1.15,0,0,1,.68.17A.62.62,0,0,1,21,42a.59.59,0,0,1,0,.27.48.48,0,0,1-.15.22.76.76,0,0,1-.23.15,1,1,0,0,1-.31.08l.08.08.9,1.13H21l-.05,0-.84-1.06-.06-.06h-.46Zm0-.15h.46a1,1,0,0,0,.31,0,.71.71,0,0,0,.23-.12.43.43,0,0,0,.15-.18.7.7,0,0,0,0-.25.47.47,0,0,0-.19-.42.88.88,0,0,0-.53-.13h-.48Z"/><path class="cls-2" d="M27.67,42.66a1.59,1.59,0,0,1-.09.55,1.09,1.09,0,0,1-.25.42,1,1,0,0,1-.4.27,1.19,1.19,0,0,1-.51.1,1.18,1.18,0,0,1-.5-.1,1,1,0,0,1-.4-.27,1.09,1.09,0,0,1-.25-.42,1.56,1.56,0,0,1,0-1.1,1.09,1.09,0,0,1,.25-.42,1,1,0,0,1,.4-.27,1.18,1.18,0,0,1,.5-.1,1.36,1.36,0,0,1,.51.09,1.15,1.15,0,0,1,.4.28,1.09,1.09,0,0,1,.25.42A1.59,1.59,0,0,1,27.67,42.66Zm-.19,0a1.48,1.48,0,0,0-.08-.49,1.17,1.17,0,0,0-.21-.38,1,1,0,0,0-.33-.23,1.23,1.23,0,0,0-.44-.08,1.16,1.16,0,0,0-.42.08,1.13,1.13,0,0,0-.34.23,1.17,1.17,0,0,0-.21.38,1.54,1.54,0,0,0,0,1,1,1,0,0,0,.21.37,1,1,0,0,0,.76.31,1,1,0,0,0,.44-.08.86.86,0,0,0,.33-.23,1,1,0,0,0,.21-.37A1.48,1.48,0,0,0,27.48,42.66Z"/><path class="cls-2" d="M33.91,43.53h0l.07.08a1.29,1.29,0,0,1-.17.16.94.94,0,0,1-.22.12.91.91,0,0,1-.25.07,1.39,1.39,0,0,1-.3,0,1.3,1.3,0,0,1-.49-.09,1.13,1.13,0,0,1-.39-.27,1.24,1.24,0,0,1-.26-.43,1.59,1.59,0,0,1-.09-.55,1.42,1.42,0,0,1,.1-.55,1.29,1.29,0,0,1,.26-.42,1.09,1.09,0,0,1,.4-.27,1.32,1.32,0,0,1,.53-.1l.26,0a.79.79,0,0,1,.22.06l.19.1.18.14-.06.08s0,0,0,0a0,0,0,0,1,0,0l-.07,0-.1-.07-.13-.06-.18,0-.23,0a1.23,1.23,0,0,0-.44.08,1.09,1.09,0,0,0-.35.24,1.14,1.14,0,0,0-.22.37,1.29,1.29,0,0,0-.08.49,1.35,1.35,0,0,0,.08.5,1,1,0,0,0,.55.6,1.16,1.16,0,0,0,.42.08l.25,0a.66.66,0,0,0,.2-.06.56.56,0,0,0,.17-.09.61.61,0,0,0,.16-.12h0Z"/><path class="cls-2" d="M40.34,44h-.19V42.71H38.51V44h-.19V41.35h.19v1.22h1.64V41.35h.19Z"/><path class="cls-2" d="M46.4,41.35v.16H45v1.06h1.15v.15H45v1.09H46.4V44H44.83V41.35Z"/><path class="cls-2" d="M52.44,41.35v.16h-.92V44h-.19V41.51h-.92v-.16Z"/></g></g></svg>